<svg width="15" height="9" viewBox="0 0 15 9" fill="none" xmlns="http://www.w3.org/2000/svg">
<path d="M13.8281 0.281233C13.1808 0.281233 12.6562 0.806233 12.6562 1.45311C12.6562 1.58623 12.6834 1.71139 12.7237 1.83045L9.86719 4.28998C9.66703 4.13014 9.41672 4.03076 9.14062 4.03076C8.82187 4.03076 8.53406 4.15873 8.32312 4.36498L6.08531 3.24467C6.04172 2.63717 5.54063 2.15576 4.92188 2.15576C4.275 2.15576 3.75 2.68076 3.75 3.32764C3.75 3.50483 3.79219 3.67076 3.8625 3.82123L1.58109 6.45186C1.45312 6.40404 1.31672 6.37404 1.17188 6.37404C0.524531 6.37404 0 6.89858 0 7.54592C0 8.19326 0.524531 8.71779 1.17188 8.71779C1.81922 8.71779 2.34375 8.19326 2.34375 7.54592C2.34375 7.39029 2.31188 7.2417 2.25656 7.10576L4.575 4.44092C4.68563 4.47514 4.8 4.49905 4.92188 4.49905C5.26266 4.49905 5.56734 4.35092 5.78156 4.11795L7.97016 5.21529C7.97813 5.85608 8.49844 6.37358 9.14062 6.37358C9.78797 6.37358 10.3125 5.84904 10.3125 5.2017C10.3125 5.18108 10.3073 5.16139 10.3064 5.14076L13.3547 2.52186C13.4995 2.58608 13.6589 2.62311 13.8281 2.62311C14.4755 2.62311 15 2.09858 15 1.45123C15 0.803889 14.4755 0.279358 13.8281 0.279358V0.281233Z" fill="#1C274C"/>
</svg>
