<svg width="14" height="14" viewBox="0 0 14 14" fill="none" xmlns="http://www.w3.org/2000/svg">
<g clip-path="url(#clip0_97_134)">
<path d="M13.3636 3.81818H10.1818V0.636364C10.1818 0.467589 10.1148 0.305728 9.99543 0.186387C9.87609 0.0670452 9.71423 0 9.54545 0H4.45455C4.28577 0 4.12391 0.0670452 4.00457 0.186387C3.88523 0.305728 3.81818 0.467589 3.81818 0.636364V3.81818H0.636364C0.467589 3.81818 0.305728 3.88523 0.186387 4.00457C0.0670452 4.12391 0 4.28577 0 4.45455V13.3636C0 13.5324 0.0670452 13.6943 0.186387 13.8136C0.305728 13.933 0.467589 14 0.636364 14H13.3636C13.5324 14 13.6943 13.933 13.8136 13.8136C13.933 13.6943 14 13.5324 14 13.3636V4.45455C14 4.28577 13.933 4.12391 13.8136 4.00457C13.6943 3.88523 13.5324 3.81818 13.3636 3.81818ZM1.27273 5.09091H3.81818V12.7273H1.27273V5.09091ZM5.09091 4.45455V1.27273H8.90909V12.7273H7.63636V11.4545C7.63636 11.2858 7.56932 11.1239 7.44998 11.0046C7.33064 10.8852 7.16877 10.8182 7 10.8182C6.83123 10.8182 6.66936 10.8852 6.55002 11.0046C6.43068 11.1239 6.36364 11.2858 6.36364 11.4545V12.7273H5.09091V4.45455ZM12.7273 12.7273H10.1818V5.09091H12.7273V12.7273ZM7.63636 3.81818H6.36364V2.54545H7.63636V3.81818ZM7.63636 6.36364H6.36364V5.09091H7.63636V6.36364ZM7.63636 8.90909H6.36364V7.63636H7.63636V8.90909ZM1.90909 5.72727H3.18182V7H1.90909V5.72727ZM1.90909 8.27273H3.18182V9.54545H1.90909V8.27273ZM1.90909 10.8182H3.18182V12.0909H1.90909V10.8182ZM12.0909 7H10.8182V5.72727H12.0909V7ZM12.0909 9.54545H10.8182V8.27273H12.0909V9.54545ZM12.0909 12.0909H10.8182V10.8182H12.0909V12.0909Z" fill="#1C274C"/>
</g>
<defs>
<clipPath id="clip0_97_134">
<rect width="14" height="14" fill="white"/>
</clipPath>
</defs>
</svg>
