<svg width="37" height="48" viewBox="0 0 37 48" fill="none" xmlns="http://www.w3.org/2000/svg">
<ellipse cx="18.5" cy="18" rx="10.5" ry="10" fill="#1C274C"/>
<path d="M18.4999 0C8.28362 0 0 8.05978 0 18C0 27.9403 15.4168 48 18.5 48C21.5834 48 37 27.9403 37 18C37 8.05978 28.7164 0 18.4999 0ZM18.4999 29.9999C11.698 29.9999 6.16679 24.6151 6.16679 18C6.16679 11.385 11.698 5.99995 18.4999 5.99995C25.3021 5.99995 30.8331 11.385 30.8331 18C30.8331 24.6151 25.3022 29.9999 18.4999 29.9999Z" fill="#1C274C"/>
<path d="M13 12L13.9994 22.7858L18.4841 24L23 22.7858L24 12H13ZM21.8278 15.5176H16.5625L16.6801 16.8747H21.7108L21.3205 20.9542L18.5153 21.6965V21.7042H18.4841L15.6557 20.9542L15.4835 18.87H16.8506L16.9523 19.92L18.4835 20.3171L20.0222 19.92L20.1943 18.2095H15.4131L15.0466 14.2053H21.9528L21.8278 15.5176Z" fill="white"/>
</svg>
