<svg width="37" height="48" viewBox="0 0 37 48" fill="none" xmlns="http://www.w3.org/2000/svg">
<ellipse cx="18.5" cy="18" rx="10.5" ry="10" fill="#1C274C"/>
<path d="M21.4632 19.3891C21.8007 19.1667 22.269 18.9741 22.269 18.9741C22.269 18.9741 20.9363 19.2065 19.6104 19.3128C17.9883 19.4422 16.2457 19.4688 15.371 19.3559C13.3012 19.0903 16.5075 18.3565 16.5075 18.3565C16.5075 18.3565 15.2642 18.2768 13.7317 18.9874C11.9237 19.8307 18.2087 20.2159 21.4632 19.3891ZM18.5221 18.3233C17.8678 16.9056 15.6603 15.6605 18.5221 13.4824C22.092 10.7664 20.2613 9 20.2613 9C21.0017 11.8056 17.6577 12.6556 16.4489 14.3988C15.6258 15.5907 16.8518 16.869 18.5221 18.3233ZM22.4688 12.473C22.4722 12.473 16.4351 13.9273 19.3176 17.128C20.1683 18.071 19.0938 18.921 19.0938 18.921C19.0938 18.921 21.2531 17.8452 20.2613 16.5005C19.3349 15.2454 18.6254 14.6212 22.4688 12.473ZM22.2587 21.4543C22.2399 21.486 22.2167 21.515 22.1898 21.5407C26.6083 20.4217 24.9828 17.5929 22.8717 18.31C22.7577 18.3504 22.6592 18.4234 22.5893 18.5192C22.7126 18.4762 22.8393 18.4429 22.9681 18.4196C24.0357 18.2038 25.5682 19.7975 22.2587 21.4543ZM23.8828 23.5229C23.8828 23.5229 24.3822 23.918 23.3352 24.2268C21.3413 24.8078 15.0424 24.9838 13.293 24.25C12.6627 23.9877 13.844 23.6191 14.2159 23.5428C14.6016 23.4631 14.8255 23.4764 14.8255 23.4764C14.1264 23.0016 10.3037 24.4094 12.8832 24.8111C19.9169 25.9134 25.7081 24.3164 23.8828 23.5229ZM16.1837 22.1483C13.4734 22.8787 17.8333 24.3861 21.2841 22.9617C20.9475 22.8357 20.6227 22.6824 20.3129 22.5035C18.7735 22.7858 18.0606 22.8057 16.6624 22.6529C15.5087 22.5268 16.1837 22.1483 16.1837 22.1483ZM22.3758 25.3756C19.6655 25.867 16.3215 25.8105 14.3413 25.4951C14.3413 25.4918 14.7477 25.8172 16.8346 25.9466C20.0099 26.1425 24.8864 25.8371 25 24.3894C25 24.3894 24.7796 24.9373 22.3758 25.3756ZM20.8743 20.7205C18.8355 21.0991 17.6543 21.0891 16.1631 20.9397C15.0094 20.8235 15.7636 20.2856 15.7636 20.2856C12.7743 21.2418 17.4235 22.3242 21.6009 21.1455C21.3309 21.0536 21.0835 20.9089 20.8743 20.7205Z" fill="white"/>
<path d="M18.4999 0C8.28362 0 0 8.05978 0 18C0 27.9403 15.4168 48 18.5 48C21.5834 48 37 27.9403 37 18C37 8.05978 28.7164 0 18.4999 0ZM18.4999 29.9999C11.698 29.9999 6.16679 24.6151 6.16679 18C6.16679 11.385 11.698 5.99995 18.4999 5.99995C25.3021 5.99995 30.8331 11.385 30.8331 18C30.8331 24.6151 25.3022 29.9999 18.4999 29.9999Z" fill="#1C274C"/>
</svg>
