<svg width="15" height="15" viewBox="0 0 15 15" fill="none" xmlns="http://www.w3.org/2000/svg">
<g clip-path="url(#clip0_138_287)">
<path fill-rule="evenodd" clip-rule="evenodd" d="M7 6.75V7.5H8V6.75V5.5H7V6.75ZM2 6.75C2 6.612 2.112 6.5 2.25 6.5H6.5V5.5C6.5 5.22425 6.72425 5 7 5H8C8.27575 5 8.5 5.22425 8.5 5.5V6.5H12.75C12.888 6.5 13 6.612 13 6.75C13 6.888 12.888 7 12.75 7H8.5V7.5C8.5 7.77575 8.27575 8 8 8H7C6.72425 8 6.5 7.77575 6.5 7.5V7H2.25C2.112 7 2 6.888 2 6.75ZM7.5075 7.25C7.64575 7.25 7.7575 7.138 7.7575 7C7.7575 6.862 7.64575 6.75 7.5075 6.75H7.505C7.367 6.75 7.25625 6.862 7.25625 7C7.25625 7.138 7.3695 7.25 7.5075 7.25ZM1.75 2.5C1.61225 2.5 1.5 2.61225 1.5 2.75V10H13.5V2.75C13.5 2.61225 13.3877 2.5 13.25 2.5H1.75ZM6.5 2H8.5V1.5H6.5V2ZM5.5 2H6V1.25C6 1.112 6.112 1 6.25 1H8.75C8.888 1 9 1.112 9 1.25V2H9.5V0.75C9.5 0.61225 9.38775 0.5 9.25 0.5H5.75C5.61225 0.5 5.5 0.61225 5.5 0.75V2ZM1.75 2H5V0.75C5 0.3365 5.3365 0 5.75 0H9.25C9.6635 0 10 0.3365 10 0.75V2H13.25C13.6635 2 14 2.3365 14 2.75V10.25C14 10.388 13.888 10.5 13.75 10.5H1.25C1.112 10.5 1 10.388 1 10.25V2.75C1 2.3365 1.3365 2 1.75 2ZM9.75 13.5H9V13.25C9 13.112 8.888 13 8.75 13C8.612 13 8.5 13.112 8.5 13.25V13.75C8.5 13.888 8.612 14 8.75 14H9.75C10.0308 14 10.3238 14.2285 10.4438 14.5H4.55625C4.67625 14.2285 4.96925 14 5.25 14H7.75C7.888 14 8 13.888 8 13.75C8 13.612 7.888 13.5 7.75 13.5H6.5V13.25C6.5 13.112 6.388 13 6.25 13C6.112 13 6 13.112 6 13.25V13.5H5.25C4.6075 13.5 4 14.1075 4 14.75C4 14.888 4.112 15 4.25 15H10.75C10.888 15 11 14.888 11 14.75C11 14.1075 10.3925 13.5 9.75 13.5ZM7.505 11C7.367 11 7.25625 11.112 7.25625 11.25C7.25625 11.388 7.3695 11.5 7.5075 11.5C7.64575 11.5 7.7575 11.388 7.7575 11.25C7.7575 11.112 7.64575 11 7.5075 11H7.505ZM15 2.25V11.25C15 11.951 14.451 12.5 13.75 12.5H1.25C0.4745 12.5 0 11.367 0 10.75V2.25C0.04775 1.54175 0.5965 1 1.25 1H4.25C4.388 1 4.5 1.112 4.5 1.25C4.5 1.388 4.388 1.5 4.25 1.5H1.25C0.813 1.5 0.52525 1.89 0.4995 2.267L0.5 10.75C0.5 11.255 0.895 12 1.25 12H13.75C14.1775 12 14.5 11.6775 14.5 11.25V2.25C14.5 1.8365 14.1635 1.5 13.75 1.5H10.75C10.612 1.5 10.5 1.388 10.5 1.25C10.5 1.112 10.612 1 10.75 1H13.75C14.4392 1 15 1.56075 15 2.25Z" fill="white"/>
</g>
<defs>
<clipPath id="clip0_138_287">
<rect width="15" height="15" fill="white"/>
</clipPath>
</defs>
</svg>
