<svg width="20" height="20" viewBox="0 0 20 20" fill="none" xmlns="http://www.w3.org/2000/svg">
<path fill-rule="evenodd" clip-rule="evenodd" d="M0.0198986 0C-0.00241062 0.00324853 -0.000766781 0.030137 0.000837915 0.0570646C0.000837915 6.69769 0.000837915 13.3373 0.000837915 19.9778C6.62956 20.0222 13.3397 19.9841 20 19.9968C20 13.3311 20 6.66567 20 0C13.3402 0 6.67974 0 0.0198986 0ZM10.1524 17.6778C9.68968 18.1443 8.9595 18.419 8.06122 18.419C6.58792 18.419 5.76991 17.7012 5.24776 16.7082C5.75038 16.3872 6.26404 16.0772 6.78764 15.7769C7.00118 16.3742 7.72251 17.0457 8.53649 16.6323C9.05245 16.3701 8.99289 15.5752 8.99289 14.7124C8.99289 12.9209 8.99289 10.8542 8.99289 9.23796C8.99124 9.21104 8.98964 9.18415 9.01175 9.1809C9.62651 9.1809 10.2412 9.1809 10.8558 9.1809C10.8558 10.6207 10.8558 12.2495 10.8558 13.7809C10.8558 15.4481 10.975 16.8488 10.1524 17.6778ZM18.403 16.0241C18.2983 17.5852 17.0236 18.4141 15.3043 18.419C13.6189 18.4238 12.5402 17.6748 11.8823 16.5181C12.3553 16.1926 12.8912 15.9304 13.3843 15.6249C13.7788 16.2418 14.462 16.8347 15.4754 16.7463C16.1068 16.6913 16.8397 16.1766 16.4259 15.3967C16.2252 15.0186 15.7404 14.8266 15.3043 14.6364C13.9207 14.0328 12.2974 13.4791 12.4526 11.3099C12.5046 10.5853 12.8382 10.0761 13.2702 9.71323C13.7129 9.34141 14.3058 9.09221 15.0952 9.067C16.5288 9.02109 17.3153 9.65878 17.8517 10.5497C17.3952 10.8977 16.8923 11.1998 16.3879 11.5001C16.2224 10.9915 15.4234 10.4958 14.753 10.7968C14.4481 10.9335 14.1742 11.3354 14.3348 11.8232C14.4781 12.2582 15.0624 12.4963 15.5324 12.6977C16.9552 13.3067 18.5452 13.9019 18.403 16.0241Z" fill="#1C274C"/>
</svg>
