<svg width="37" height="48" viewBox="0 0 37 48" fill="none" xmlns="http://www.w3.org/2000/svg">
<ellipse cx="18.5" cy="18" rx="10.5" ry="10" fill="#1C274C"/>
<path d="M23.6071 12H13.3929C12.6239 12 12 12.5759 12 13.2857V22.7143C12 23.4241 12.6239 24 13.3929 24H23.6071C24.3761 24 25 23.4241 25 22.7143V13.2857C25 12.5759 24.3761 12 23.6071 12ZM19.0746 21.3589C19.0746 22.5268 18.3317 23.0598 17.2493 23.0598C16.2714 23.0598 15.7056 22.5938 15.4154 22.0286L16.4107 21.4741C16.6022 21.7875 16.7763 22.0527 17.1971 22.0527C17.5975 22.0527 17.8529 21.908 17.8529 21.3429V17.5098H19.0746V21.3589ZM21.9647 23.0598C20.8301 23.0598 20.096 22.5616 19.7391 21.908L20.7344 21.3777C20.9955 21.7714 21.3379 22.0634 21.9386 22.0634C22.4435 22.0634 22.7685 21.8304 22.7685 21.5063C22.7685 21.1205 22.4377 20.9839 21.8777 20.7563L21.573 20.6357C20.6908 20.2902 20.1076 19.8536 20.1076 18.9348C20.1076 18.0884 20.8069 17.4455 21.8951 17.4455C22.6728 17.4455 23.2299 17.6946 23.6304 18.3482L22.6786 18.9107C22.4696 18.5652 22.2433 18.4286 21.8922 18.4286C21.5353 18.4286 21.3089 18.6375 21.3089 18.9107C21.3089 19.2482 21.5353 19.3848 22.0605 19.5964L22.3652 19.717C23.404 20.1268 23.9873 20.5473 23.9873 21.4902C23.9873 22.5027 23.1225 23.0598 21.9647 23.0598Z" fill="white"/>
<path d="M18.4999 0C8.28362 0 0 8.05978 0 18C0 27.9403 15.4168 48 18.5 48C21.5834 48 37 27.9403 37 18C37 8.05978 28.7164 0 18.4999 0ZM18.4999 29.9999C11.698 29.9999 6.16679 24.6151 6.16679 18C6.16679 11.385 11.698 5.99995 18.4999 5.99995C25.3021 5.99995 30.8331 11.385 30.8331 18C30.8331 24.6151 25.3022 29.9999 18.4999 29.9999Z" fill="#1C274C"/>
</svg>
