<svg width="20" height="12" viewBox="0 0 20 12" fill="none" xmlns="http://www.w3.org/2000/svg">
<path d="M15.6662 4.75C15.8112 4.91074 15.8457 5.18675 15.7698 5.57773C15.6905 5.98496 15.538 6.27546 15.3119 6.4496C15.0856 6.62375 14.7415 6.71081 14.2794 6.71081H13.5821L14.0102 4.50886H14.7954C15.231 4.50886 15.5211 4.58929 15.6662 4.75ZM5.84977 4.50886H5.06449L4.63645 6.71081H5.33363C5.79563 6.71081 6.13984 6.62375 6.36613 6.4496C6.59227 6.27546 6.7448 5.98492 6.82406 5.57773C6.89992 5.18671 6.86547 4.91074 6.72043 4.75C6.57539 4.58929 6.28527 4.50886 5.84977 4.50886ZM19.9805 6C19.9805 8.89957 15.512 11.2501 10 11.2501C4.48801 11.2501 0.0195312 8.89957 0.0195312 6C0.0195312 3.10046 4.48801 0.749878 10 0.749878C15.512 0.749878 19.9805 3.10046 19.9805 6ZM7.75555 6.36273C7.8743 6.14992 7.95879 5.91503 8.00879 5.65816C8.12996 5.03445 8.03852 4.54867 7.73441 4.20062C7.43047 3.85257 6.94672 3.67863 6.28379 3.67863H4.07977L3.05723 8.93988H4.2034L4.4752 7.54124H5.45699C5.89008 7.54124 6.24645 7.49578 6.52621 7.40464C6.80594 7.31367 7.06016 7.16117 7.28902 6.94687C7.48102 6.77031 7.63645 6.5757 7.75555 6.36273ZM11.7896 7.54124L12.2654 5.09273C12.3623 4.5948 12.2896 4.23449 12.0478 4.0121C11.8057 3.78992 11.3662 3.67863 10.7287 3.67863H9.7157L9.98762 2.2798H8.85051L7.82777 7.54121H8.96488L9.55066 4.52695H10.4595C10.7505 4.52695 10.9407 4.57507 11.03 4.6714C11.1193 4.76777 11.1383 4.94839 11.0868 5.21316L10.6345 7.54121H11.7896V7.54124ZM16.6801 4.20066C16.3762 3.85261 15.8925 3.67867 15.2295 3.67867H13.0255L12.0029 8.93992H13.1491L13.4209 7.54128H14.4027C14.8357 7.54128 15.1921 7.49582 15.4719 7.40468C15.7516 7.31371 16.0058 7.16121 16.2347 6.94691C16.4269 6.77031 16.5822 6.57574 16.7012 6.36277C16.8201 6.14996 16.9044 5.91507 16.9545 5.6582C17.0757 5.03445 16.9842 4.54867 16.6801 4.20066Z" fill="#1C274C"/>
</svg>
