<svg width="37" height="48" viewBox="0 0 37 48" fill="none" xmlns="http://www.w3.org/2000/svg">
<ellipse cx="18.5" cy="18" rx="10.5" ry="10" fill="#1C274C"/>
<path d="M23.3257 16.8095C23.4492 16.9626 23.4785 17.2255 23.4139 17.5979C23.3464 17.9857 23.2165 18.2623 23.0239 18.4282C22.8312 18.594 22.5381 18.677 22.1446 18.677H21.5508L21.9153 16.5799H22.5841C22.955 16.5799 23.2021 16.6565 23.3257 16.8095ZM14.9654 16.5799H14.2966L13.9321 18.677H14.5258C14.9193 18.677 15.2124 18.594 15.4052 18.4282C15.5978 18.2623 15.7277 17.9856 15.7952 17.5979C15.8598 17.2255 15.8304 16.9626 15.7069 16.8095C15.5834 16.6565 15.3363 16.5799 14.9654 16.5799ZM27 18C27 20.7614 23.1944 23 18.5 23C13.8056 23 10 20.7614 10 18C10 15.2386 13.8056 13 18.5 13C23.1944 13 27 15.2386 27 18ZM16.5885 18.3455C16.6896 18.1428 16.7616 17.9191 16.8042 17.6744C16.9074 17.0805 16.8295 16.6178 16.5705 16.2863C16.3116 15.9549 15.8996 15.7892 15.335 15.7892H13.458L12.5871 20.7998H13.5632L13.7947 19.4678H14.6309C14.9997 19.4678 15.3032 19.4245 15.5415 19.3377C15.7797 19.2511 15.9962 19.1059 16.1912 18.9018C16.3547 18.7336 16.487 18.5483 16.5885 18.3455ZM20.0241 19.4678L20.4294 17.136C20.5119 16.6617 20.45 16.3186 20.244 16.1068C20.0379 15.8952 19.6635 15.7892 19.1206 15.7892H18.2579L18.4895 14.457H17.521L16.65 19.4678H17.6184L18.1173 16.5971H18.8914C19.1391 16.5971 19.3011 16.643 19.3772 16.7347C19.4533 16.8265 19.4695 16.9985 19.4256 17.2506L19.0403 19.4678H20.0241V19.4678ZM24.1892 16.2864C23.9304 15.9549 23.5184 15.7893 22.9538 15.7893H21.0767L20.2058 20.7999H21.182L21.4134 19.4679H22.2496C22.6184 19.4679 22.922 19.4246 23.1602 19.3378C23.3984 19.2511 23.6149 19.1059 23.8099 18.9018C23.9735 18.7336 24.1058 18.5483 24.2072 18.3455C24.3084 18.1428 24.3802 17.9191 24.4229 17.6745C24.5261 17.0805 24.4482 16.6178 24.1892 16.2864Z" fill="white"/>
<path d="M18.4999 0C8.28362 0 0 8.05978 0 18C0 27.9403 15.4168 48 18.5 48C21.5834 48 37 27.9403 37 18C37 8.05978 28.7164 0 18.4999 0ZM18.4999 29.9999C11.698 29.9999 6.16679 24.6151 6.16679 18C6.16679 11.385 11.698 5.99995 18.4999 5.99995C25.3021 5.99995 30.8331 11.385 30.8331 18C30.8331 24.6151 25.3022 29.9999 18.4999 29.9999Z" fill="#1C274C"/>
</svg>
