<svg width="37" height="48" viewBox="0 0 37 48" fill="none" xmlns="http://www.w3.org/2000/svg">
<ellipse cx="18.5" cy="18" rx="10.5" ry="10" fill="#1C274C"/>
<path d="M18.5 16.6243C19.2186 16.6243 19.8047 17.2357 19.8047 18C19.8047 18.7279 19.2186 19.3466 18.5 19.3466C17.7814 19.3466 17.1953 18.7279 17.1953 18C17.1953 17.2357 17.7814 16.6243 18.5 16.6243ZM15.2698 23.823C15.7093 24.0996 16.6721 23.6774 17.7814 22.5856C17.4186 22.1562 17.0628 21.6903 16.7279 21.2027C16.1657 21.1465 15.6068 21.059 15.0535 20.9406C14.6977 22.4983 14.8302 23.5682 15.2698 23.823ZM15.7651 19.645L15.5628 19.2738C15.486 19.4849 15.4093 19.6959 15.3605 19.8998C15.5488 19.9434 15.7581 19.9798 15.9744 20.0162L15.7651 19.645ZM20.3279 19.0918L20.893 18L20.3279 16.9082C20.1186 16.5224 19.8953 16.1803 19.693 15.8382C19.3163 15.8164 18.9186 15.8164 18.5 15.8164C18.0814 15.8164 17.6837 15.8164 17.307 15.8382C17.1047 16.1803 16.8814 16.5224 16.6721 16.9082L16.107 18L16.6721 19.0918C16.8814 19.4776 17.1047 19.8197 17.307 20.1618C17.6837 20.1836 18.0814 20.1836 18.5 20.1836C18.9186 20.1836 19.3163 20.1836 19.693 20.1618C19.8953 19.8197 20.1186 19.4776 20.3279 19.0918ZM18.5 14.2005C18.3674 14.3606 18.2279 14.528 18.0884 14.7246H18.9116C18.7721 14.528 18.6326 14.3606 18.5 14.2005ZM18.5 21.7995C18.6326 21.6394 18.7721 21.472 18.9116 21.2754H18.0884C18.2279 21.472 18.3674 21.6394 18.5 21.7995ZM21.7233 12.177C21.2907 11.9004 20.3279 12.3226 19.2186 13.4144C19.5814 13.8438 19.9372 14.3097 20.2721 14.7973C20.8442 14.8556 21.4093 14.9429 21.9465 15.0594C22.3023 13.5017 22.1698 12.4318 21.7233 12.177ZM21.2349 16.355L21.4372 16.7262C21.514 16.5151 21.5907 16.3041 21.6395 16.1002C21.4512 16.0566 21.2419 16.0202 21.0256 15.9838L21.2349 16.355ZM22.2465 11.2235C23.2721 11.8349 23.3837 13.4435 22.9512 15.3214C24.7233 15.8673 26 16.7699 26 18C26 19.2301 24.7233 20.1327 22.9512 20.6786C23.3837 22.5565 23.2721 24.1651 22.2465 24.7765C21.2279 25.3879 19.8395 24.6892 18.5 23.3572C17.1605 24.6892 15.7721 25.3879 14.7465 24.7765C13.7279 24.1651 13.6163 22.5565 14.0488 20.6786C12.2767 20.1327 11 19.2301 11 18C11 16.7699 12.2767 15.8673 14.0488 15.3214C13.6163 13.4435 13.7279 11.8349 14.7465 11.2235C15.7721 10.6121 17.1605 11.3108 18.5 12.6428C19.8395 11.3108 21.2279 10.6121 22.2465 11.2235ZM22.0442 18C22.2814 18.5459 22.4907 19.0918 22.6651 19.645C24.1302 19.1864 24.9535 18.5313 24.9535 18C24.9535 17.4687 24.1302 16.8136 22.6651 16.355C22.4907 16.9082 22.2814 17.4541 22.0442 18ZM14.9558 18C14.7186 17.4541 14.5093 16.9082 14.3349 16.355C12.8698 16.8136 12.0465 17.4687 12.0465 18C12.0465 18.5313 12.8698 19.1864 14.3349 19.645C14.5093 19.0918 14.7186 18.5459 14.9558 18ZM21.2349 19.645L21.0256 20.0162C21.2419 19.9798 21.4512 19.9434 21.6395 19.8998C21.5907 19.6959 21.514 19.4849 21.4372 19.2738L21.2349 19.645ZM19.2186 22.5856C20.3279 23.6774 21.2907 24.0996 21.7233 23.823C22.1698 23.5682 22.3023 22.4983 21.9465 20.9406C21.4093 21.0571 20.8442 21.1444 20.2721 21.2027C19.9372 21.6903 19.5814 22.1562 19.2186 22.5856ZM15.7651 16.355L15.9744 15.9838C15.7581 16.0202 15.5488 16.0566 15.3605 16.1002C15.4093 16.3041 15.486 16.5151 15.5628 16.7262L15.7651 16.355ZM17.7814 13.4144C16.6721 12.3226 15.7093 11.9004 15.2698 12.177C14.8302 12.4318 14.6977 13.5017 15.0535 15.0594C15.6068 14.941 16.1657 14.8535 16.7279 14.7973C17.0628 14.3097 17.4186 13.8438 17.7814 13.4144Z" fill="white"/>
<path d="M18.4999 0C8.28362 0 0 8.05978 0 18C0 27.9403 15.4168 48 18.5 48C21.5834 48 37 27.9403 37 18C37 8.05978 28.7164 0 18.4999 0ZM18.4999 29.9999C11.698 29.9999 6.16679 24.6151 6.16679 18C6.16679 11.385 11.698 5.99995 18.4999 5.99995C25.3021 5.99995 30.8331 11.385 30.8331 18C30.8331 24.6151 25.3022 29.9999 18.4999 29.9999Z" fill="#1C274C"/>
</svg>
