<svg width="16" height="16" viewBox="0 0 16 16" fill="none" xmlns="http://www.w3.org/2000/svg">
<path d="M12.1576 0.0057373C12.7997 0.0057373 13.3497 0.0552575 13.8834 0.255378C15.4892 0.857567 15.9581 1.44885 15.8914 2.38275C15.8686 2.70212 15.7909 3.2026 15.6635 3.78291L10.6489 1.19967C10.5029 0.696697 10.3042 0.320178 9.87829 0.0491532C10.7788 0.0491532 11.5156 0.0057373 12.1576 0.0057373ZM8.73863 0.450749C9.21074 0.43796 9.60212 0.546389 9.88915 0.798076C11.0373 1.80482 9.99387 4.67127 7.55555 7.19105C5.11723 9.71084 2.20214 10.933 1.05403 9.92625C-0.0940773 8.9195 0.960163 6.05306 3.39848 3.53327C5.22722 1.64343 7.32227 0.489113 8.73863 0.450749ZM15.9239 3.91316L15.0665 15.2447L5.0917 15.9285L7.77263 14.6694L11.3653 11.8365L14.1548 8.35243L15.7503 5.1071L15.9239 3.91316ZM15.62 3.99999C15.3601 5.08519 14.8743 6.45236 14.0136 7.7229C13.3616 8.68545 12.3463 9.84212 11.2676 10.9248C10.0289 12.1681 8.71365 13.319 7.75092 13.9965C6.05375 15.1908 4.59078 15.9145 3.31165 15.9936L5.59098 10.0131L11.2676 10.9248L9.95427 5.64979L15.62 3.99999ZM0.20742 10.2627C0.20742 10.2627 0.26253 10.5908 0.793534 10.8488L3.20311 15.9936C3.16096 15.995 3.12547 15.9936 3.08372 15.9936C1.74958 15.9936 0.672787 15.6655 0.272544 14.3981C-0.127698 13.1306 0.20742 10.2627 0.20742 10.2627Z" fill="#1C274C"/>
</svg>
