<svg width="37" height="48" viewBox="0 0 37 48" fill="none" xmlns="http://www.w3.org/2000/svg">
<ellipse cx="18.5" cy="18" rx="10.5" ry="10" fill="#1C274C"/>
<path d="M21.1481 12C21.6343 12 22.0508 12.0341 22.4549 12.1718C23.6708 12.5861 24.0259 12.9929 23.9753 13.6354C23.9581 13.8551 23.8993 14.1994 23.8028 14.5987L20.0058 12.8214C19.8952 12.4754 19.7447 12.2163 19.4222 12.0299C20.1041 12.0299 20.662 12 21.1481 12ZM18.5593 12.3062C18.9168 12.2974 19.2131 12.372 19.4305 12.5451C20.2998 13.2378 19.5098 15.2099 17.6635 16.9435C15.8172 18.6771 13.6099 19.5179 12.7405 18.8253C11.8712 18.1326 12.6694 16.1605 14.5157 14.4269C15.9005 13.1267 17.4868 12.3326 18.5593 12.3062ZM24 14.6883L23.3507 22.4843L15.7978 22.9548L17.8278 22.0885L20.5482 20.1395L22.6604 17.7425L23.8685 15.5097L24 14.6883ZM23.7699 14.748C23.573 15.4946 23.2052 16.4352 22.5535 17.3094C22.0598 17.9716 21.291 18.7674 20.4742 19.5123C19.5363 20.3677 18.5404 21.1595 17.8114 21.6256C16.5263 22.4472 15.4185 22.9451 14.45 22.9996L16.1759 18.885L20.4742 19.5123L19.4798 15.8831L23.7699 14.748ZM12.0995 19.0567C12.0995 19.0567 12.1412 19.2825 12.5433 19.46L14.3678 22.9996C14.3359 23.0005 14.309 22.9996 14.2774 22.9996C13.2672 22.9996 12.4518 22.7738 12.1488 21.9019C11.8457 21.0299 12.0995 19.0567 12.0995 19.0567Z" fill="white"/>
<path d="M18.4999 0C8.28362 0 0 8.05978 0 18C0 27.9403 15.4168 48 18.5 48C21.5834 48 37 27.9403 37 18C37 8.05978 28.7164 0 18.4999 0ZM18.4999 29.9999C11.698 29.9999 6.16679 24.6151 6.16679 18C6.16679 11.385 11.698 5.99995 18.4999 5.99995C25.3021 5.99995 30.8331 11.385 30.8331 18C30.8331 24.6151 25.3022 29.9999 18.4999 29.9999Z" fill="#1C274C"/>
</svg>
