<svg width="10" height="10" viewBox="0 0 10 10" fill="none" xmlns="http://www.w3.org/2000/svg">
<path d="M9.99817 3.33333C9.98167 3.01648 9.6425 2.76889 8.96417 2.58C8.987 2.52444 8.99983 2.46667 9 2.40667V1.11111H8.99717C8.9375 0.0318518 4.95717 0 4.5 0C4.04283 0 0.0625 0.0318518 0.00283333 1.11111H0V1.13519V2.40722C0.000833333 2.75907 0.4095 3.03444 1.0175 3.23944C1.00917 3.27018 1.00417 3.30148 1.0025 3.33333H1V3.35741V4.62722C0.345 4.81463 0.0178333 5.0587 0.00166667 5.37037H0V5.39444V6.66648C0.0005 6.91148 0.199333 7.11926 0.524667 7.29241C0.512333 7.33 0.504667 7.36833 0.5025 7.40759H0.5V7.43167V8.7037C0.501333 9.31963 1.7495 9.70204 3.13633 9.88056C3.1465 9.88278 3.15583 9.88741 3.16667 9.88741C3.16983 9.88741 3.1725 9.88556 3.17567 9.88537C3.443 9.91889 3.71467 9.945 3.9835 9.9637C3.98917 9.96444 3.99417 9.96741 4 9.96741C4.00317 9.96741 4.00567 9.96556 4.00867 9.96537C4.35 9.98833 4.68583 10 5 10C5.31417 10 5.65 9.98833 5.99133 9.96519C5.99433 9.96537 5.997 9.96722 6 9.96722C6.00583 9.96722 6.01083 9.96407 6.0165 9.96352C6.28533 9.94481 6.557 9.91889 6.82433 9.88519C6.8275 9.88519 6.83017 9.88704 6.83333 9.88704C6.84417 9.88704 6.8535 9.88241 6.86367 9.88019C8.2505 9.70167 9.4985 9.31907 9.5 8.70296V7.40741H9.49733C9.48567 7.18037 9.3115 6.99093 8.9675 6.83259C8.9885 6.77907 9 6.72352 9 6.66593V5.45556C9.59833 5.25111 9.99917 4.97759 10 4.62889V3.33333H9.99817ZM8.64867 6.72611L8.59183 6.78148C8.50433 6.86722 8.3585 6.9537 8.16667 7.03704V6.15407C8.36483 6.07741 8.5335 5.99241 8.66667 5.89926V6.66556C8.66667 6.68463 8.66033 6.705 8.64867 6.72611ZM4.921 7.58667C4.89667 7.58741 4.87217 7.58778 4.84767 7.58833C4.78817 7.58963 4.72717 7.59 4.66683 7.59056V6.66556C4.71267 6.665 4.7585 6.66426 4.80433 6.66333C4.81317 6.66315 4.822 6.66296 4.83083 6.66278C4.99867 6.65926 5.1665 6.65352 5.3335 6.645V7.56963C5.29783 7.57167 5.262 7.57352 5.22583 7.57518C5.1255 7.58018 5.02417 7.58389 4.921 7.58667ZM4.19317 7.58926C4.11683 7.58778 4.04083 7.58574 3.96533 7.58315C3.956 7.58278 3.94667 7.58241 3.93733 7.58204C3.8465 7.5787 3.75633 7.57444 3.66683 7.56963V6.64518C3.83383 6.65389 4.00167 6.65963 4.1695 6.66296C4.17833 6.66315 4.18717 6.66333 4.19583 6.66352C4.24167 6.66444 4.2875 6.66518 4.33333 6.66574V7.5913C4.301 7.59093 4.26867 7.59093 4.2365 7.59037C4.22183 7.59 4.20767 7.58944 4.19317 7.58926ZM1.18283 7.16704C1.17733 7.16518 1.17217 7.16352 1.16667 7.16185V6.26722C1.32233 6.31389 1.48967 6.35648 1.66667 6.39518V7.29907C1.51367 7.26296 1.3725 7.225 1.244 7.18611C1.22367 7.17963 1.20267 7.17352 1.18283 7.16704ZM4.69583 8.70056C4.74167 8.70148 4.7875 8.70222 4.83333 8.70278V9.62852C4.603 9.62611 4.38067 9.6187 4.16667 9.60704V8.68241C4.33367 8.69111 4.5015 8.69685 4.66933 8.70018C4.67817 8.70018 4.687 8.70037 4.69583 8.70056ZM5.33067 8.7C5.4985 8.69648 5.66633 8.69074 5.83333 8.68222V9.60685C5.61933 9.61852 5.397 9.62593 5.16667 9.62833V8.70259C5.2125 8.70204 5.25833 8.7013 5.30417 8.70037C5.313 8.70037 5.32183 8.70018 5.33067 8.7ZM6.66667 8.6163V9.53593C6.5065 9.55463 6.33983 9.57111 6.16667 9.58463V8.66111C6.33567 8.64889 6.50267 8.63389 6.66667 8.6163ZM7 8.5763C7.17183 8.55333 7.33867 8.52722 7.5 8.49815V9.40741C7.343 9.43815 7.17617 9.46648 7 9.49222V8.5763ZM7.83333 8.43204C8.01033 8.39333 8.17767 8.35074 8.33333 8.30407V9.1987C8.18483 9.2463 8.01767 9.29241 7.83333 9.33593V8.43204ZM2.16667 8.43204V9.33593C1.98233 9.29241 1.81517 9.2463 1.66667 9.1987V8.30407C1.82233 8.35074 1.98967 8.39352 2.16667 8.43204ZM2.5 8.49833C2.66133 8.52741 2.82817 8.55352 3 8.57648V9.49241C2.82383 9.46667 2.657 9.43833 2.5 9.40759V8.49833ZM3.33333 8.6163C3.49733 8.63389 3.66433 8.64889 3.83333 8.6613V9.58481C3.66017 9.5713 3.4935 9.55481 3.33333 9.53611V8.6163ZM2.91983 7.50889C2.90283 7.50704 2.886 7.505 2.86917 7.50315C2.85717 7.50185 2.84533 7.50019 2.83333 7.49889V6.57944C2.99733 6.59704 3.16433 6.61204 3.33333 6.62444V7.54722C3.19333 7.53611 3.055 7.52352 2.91983 7.50889ZM2.5 6.53926V7.45518C2.32383 7.42944 2.157 7.40111 2 7.37037V6.46111C2.16133 6.49018 2.32817 6.51648 2.5 6.53926ZM5.77767 7.53852C5.741 7.54167 5.704 7.54481 5.66667 7.54778V6.62426C5.83567 6.61185 6.00267 6.59704 6.16667 6.57926V7.49889C6.06367 7.51093 5.95833 7.52222 5.85017 7.53204C5.826 7.53444 5.80183 7.53648 5.77767 7.53852ZM6.5 7.45518V6.53926C6.67183 6.5163 6.83867 6.49018 7 6.46111V7.37037C6.843 7.40111 6.67617 7.42963 6.5 7.45518ZM7.33333 6.395C7.51033 6.3563 7.67767 6.3137 7.83333 6.26704V7.16167C7.68483 7.20926 7.51767 7.25537 7.33333 7.29889V6.395ZM5.05417 5.54907C4.92883 5.54556 4.80633 5.54018 4.686 5.5337C4.6795 5.53333 4.673 5.53296 4.66667 5.53278V4.60815C4.83367 4.61685 5.0015 4.62259 5.16933 4.62593C5.17817 4.62611 5.187 4.6263 5.19567 4.62648C5.2415 4.62741 5.28733 4.62815 5.33317 4.6287V5.55333C5.252 5.55241 5.17017 5.55204 5.091 5.55C5.07883 5.54963 5.06633 5.54944 5.05417 5.54907ZM1.16667 2.90259V2.00796C1.32233 2.05463 1.48967 2.09722 1.66667 2.13593V3.03981C1.64617 3.035 1.625 3.03018 1.605 3.02537C1.51633 3.0037 1.42983 2.98111 1.34717 2.95722C1.28417 2.93926 1.22433 2.92093 1.16667 2.90259ZM4.19583 2.40426C4.24167 2.40518 4.2875 2.40593 4.33333 2.40648V3.33111C4.109 3.3287 3.886 3.32222 3.66667 3.31V2.38611C3.83367 2.39481 4.0015 2.40056 4.16933 2.40389C4.17817 2.40389 4.187 2.40407 4.19583 2.40426ZM4.83067 2.4037C4.9985 2.40019 5.16633 2.39444 5.33333 2.38593V3.30981C5.305 3.3113 5.27783 3.31352 5.24933 3.315C5.247 3.31518 5.24467 3.31519 5.24217 3.31537C5.13033 3.32093 5.01633 3.325 4.90083 3.32796C4.88283 3.32852 4.86483 3.3287 4.84683 3.32926C4.7875 3.33056 4.72683 3.33074 4.66667 3.33148V2.40648C4.7125 2.40593 4.75833 2.40518 4.80417 2.40426C4.813 2.40407 4.82183 2.40389 4.83067 2.4037ZM8.6285 2.49667L8.62383 2.49556L8.56317 2.54796C8.47517 2.62407 8.34 2.70111 8.16667 2.77556V1.89463C8.36483 1.81796 8.5335 1.73296 8.66667 1.63981V2.40611C8.66667 2.43426 8.65333 2.46463 8.6285 2.49667ZM6.5 3.19481V2.28C6.67183 2.25704 6.83867 2.23093 7 2.20185V3.10963C6.842 3.14074 6.67567 3.16926 6.5 3.19481ZM7.33333 3.03833V2.13593C7.51033 2.09722 7.67767 2.05463 7.83333 2.00796V2.90056C7.684 2.94889 7.51583 2.995 7.33333 3.03833ZM6.16667 2.32V3.23852C6.00567 3.25741 5.839 3.27389 5.66667 3.28759V2.365C5.83567 2.35259 6.00267 2.33759 6.16667 2.32ZM2.83333 3.23889V2.32C2.99733 2.33759 3.16433 2.35259 3.33333 2.365V3.28685C3.16367 3.27333 2.99633 3.25796 2.83333 3.23889ZM2.5 2.28V3.195C2.467 3.19019 2.43267 3.1863 2.4 3.1813C2.37867 3.17796 2.35833 3.17444 2.33733 3.17111C2.241 3.15574 2.14683 3.13926 2.0545 3.12204C2.036 3.11852 2.01817 3.11481 2 3.1113V2.20204C2.16133 2.23093 2.32817 2.25722 2.5 2.28ZM4.292 5.50722C4.2695 5.50537 4.24683 5.50352 4.2245 5.50167C4.11783 5.49241 4.01367 5.48222 3.912 5.47093C3.89017 5.46852 3.86833 5.46593 3.84667 5.46352C3.84217 5.46296 3.83783 5.46222 3.83333 5.46185V4.54222C3.99733 4.55981 4.16433 4.57481 4.33333 4.58722V5.51019C4.31983 5.50907 4.3055 5.50833 4.292 5.50722ZM3.19083 5.36889C3.12483 5.35722 3.06283 5.34463 3 5.33241V4.42426C3.16133 4.45333 3.32817 4.47944 3.5 4.50241V5.41833C3.398 5.40333 3.29817 5.38778 3.20233 5.37111C3.1985 5.37019 3.19467 5.36944 3.19083 5.36889ZM2.66667 4.35796V5.26037C2.4825 5.21648 2.3155 5.16981 2.16667 5.1213V4.23C2.32233 4.27667 2.48967 4.31944 2.66667 4.35796ZM1.83333 4.11685V4.99667C1.57133 4.88426 1.40233 4.76944 1.34733 4.66722L1.33617 4.64648C1.33517 4.64074 1.3335 4.63463 1.33333 4.62889V3.86204C1.4665 3.95518 1.63517 4.04019 1.83333 4.11685ZM5.83067 4.62593C5.9985 4.62241 6.16633 4.61667 6.33333 4.60815V5.53185C6.11433 5.54389 5.89167 5.55056 5.66667 5.55315V4.6287C5.7125 4.62815 5.75833 4.62741 5.80417 4.62648C5.813 4.6263 5.82183 4.62611 5.83067 4.62593ZM7.9845 5.33648C7.91133 5.35056 7.8375 5.36444 7.76167 5.37722C7.71817 5.38463 7.67367 5.39167 7.629 5.3987C7.58683 5.40537 7.543 5.41111 7.50017 5.41722V4.50222C7.672 4.47926 7.83883 4.45315 8.00017 4.42407V5.33333C7.99483 5.33444 7.98967 5.33556 7.9845 5.33648ZM6.856 5.49463C6.79383 5.50037 6.72967 5.50407 6.66667 5.50907V4.58722C6.83567 4.57481 7.00267 4.56 7.16667 4.54222V5.46093C7.06983 5.47222 6.97317 5.48352 6.87367 5.49278C6.86767 5.49333 6.862 5.49407 6.856 5.49463ZM8.76067 5.14741C8.67767 5.17315 8.58983 5.19722 8.50017 5.22074C8.45867 5.23148 8.41633 5.24222 8.373 5.25259C8.36017 5.25574 8.3465 5.25852 8.3335 5.26167V4.35815C8.5105 4.31944 8.67783 4.27685 8.8335 4.23019V5.12481C8.8095 5.13222 8.78533 5.13981 8.76067 5.14741ZM9.66483 3.34537C9.6495 3.47111 9.393 3.63833 8.93517 3.79556C8.3455 3.99796 7.42283 4.18333 6.2535 4.24074C6.19367 4.24352 6.134 4.2463 6.073 4.24852C6.02317 4.25037 5.97317 4.25204 5.92233 4.25352C5.78433 4.25685 5.64433 4.25926 5.5 4.25926C5.35567 4.25926 5.21567 4.25685 5.07767 4.25333C5.027 4.25204 4.977 4.25019 4.927 4.24833C4.86583 4.2463 4.80617 4.24333 4.7465 4.24056C3.57717 4.18315 2.65433 3.99778 2.06483 3.79537C1.61067 3.63944 1.35467 3.47352 1.33567 3.34833C1.3365 3.34481 1.3365 3.34185 1.3385 3.33741C1.34983 3.34056 1.3625 3.34315 1.374 3.3463C1.43917 3.36352 1.506 3.38019 1.574 3.39611C1.90517 3.47537 2.27217 3.54037 2.66317 3.59C2.6645 3.59 2.6655 3.59074 2.66667 3.59074C2.667 3.59074 2.6675 3.59056 2.6675 3.59056C2.93383 3.62426 3.21017 3.65074 3.49383 3.66944C3.496 3.66944 3.49783 3.67074 3.5 3.67074C3.50117 3.67074 3.502 3.67 3.50317 3.67C3.70733 3.68333 3.91417 3.69315 4.1235 3.69833C4.25167 3.70185 4.3775 3.7037 4.5 3.7037C4.5875 3.7037 4.67717 3.70259 4.76767 3.70074C5.97867 3.68 7.101 3.52 7.882 3.27204C7.918 3.26074 7.95317 3.24907 7.98783 3.23741C8.009 3.23019 8.03067 3.22315 8.05117 3.21593C8.1115 3.19444 8.16933 3.17241 8.22517 3.14944C8.23483 3.14537 8.244 3.1413 8.25367 3.13722C8.30083 3.11741 8.34617 3.09685 8.3895 3.07593C8.402 3.06981 8.41483 3.06389 8.427 3.05778C8.47317 3.03463 8.51783 3.01093 8.55917 2.9863C8.57783 2.97537 8.594 2.96407 8.6115 2.95296C8.6315 2.94018 8.6515 2.92722 8.67 2.91407C8.6805 2.90667 8.693 2.89963 8.703 2.89222C9.44917 3.07204 9.64583 3.2687 9.66483 3.34537ZM4.5 0.37037C7.24817 0.37037 8.63817 0.851111 8.66417 1.12704C8.644 1.25222 8.38817 1.41759 7.93517 1.57315C7.3455 1.77556 6.42283 1.96093 5.2535 2.01833C5.19367 2.02111 5.134 2.02389 5.073 2.02611C5.02317 2.02796 4.97317 2.02963 4.92233 2.03111C4.78433 2.03463 4.64433 2.03704 4.5 2.03704C4.35567 2.03704 4.21567 2.03463 4.07767 2.03111C4.027 2.02981 3.977 2.02796 3.927 2.02611C3.86583 2.02407 3.80617 2.02111 3.7465 2.01833C2.57717 1.96093 1.65433 1.77556 1.06483 1.57315C0.611667 1.41759 0.356 1.25222 0.335833 1.12704C0.361833 0.851111 1.75183 0.37037 4.5 0.37037ZM0.333333 2.40667V1.63981C0.4665 1.73296 0.635167 1.81796 0.833333 1.89463V2.7813C0.509167 2.6463 0.333667 2.51093 0.333333 2.40667ZM1.14067 4.96944C1.14317 4.97241 1.147 4.975 1.1495 4.97796C1.37767 5.23389 1.85017 5.435 2.43833 5.585C2.45183 5.58852 2.46617 5.59185 2.47983 5.59537C2.523 5.60611 2.56683 5.61667 2.61117 5.62685C3.15133 5.75463 3.79617 5.84704 4.49867 5.89278C4.49917 5.89278 4.4995 5.89296 4.49983 5.89296C4.50017 5.89296 4.5005 5.89278 4.5005 5.89278C4.72617 5.90741 4.957 5.91759 5.19267 5.92204C5.297 5.92444 5.39967 5.92593 5.5 5.92593C5.615 5.92593 5.733 5.92444 5.853 5.9213C6.071 5.9163 6.28583 5.9063 6.49767 5.89259C6.4985 5.89259 6.49917 5.89315 6.5 5.89315C6.5015 5.89315 6.50267 5.89222 6.50417 5.89222C7.2085 5.84611 7.86933 5.75278 8.42817 5.61852C8.30717 5.68889 8.1415 5.76167 7.93517 5.83259C7.31267 6.0463 6.3185 6.24093 5.055 6.28611C5.0175 6.28741 4.9805 6.28889 4.9425 6.29C4.90167 6.29111 4.86017 6.29185 4.81867 6.29278C4.71383 6.29463 4.60833 6.2963 4.5 6.2963C4.35567 6.2963 4.21567 6.29389 4.07767 6.29037C4.027 6.28907 3.977 6.28722 3.927 6.28537C3.86583 6.28333 3.80617 6.28037 3.7465 6.27759C2.57717 6.22018 1.65433 6.03481 1.06483 5.83241C0.6065 5.675 0.35 5.50759 0.335167 5.38185C0.353667 5.31222 0.522167 5.13796 1.14067 4.96944ZM0.333333 6.66593V5.89907C0.4665 5.99222 0.635167 6.07722 0.833333 6.15389V7.03704L0.738167 6.99593L0.736167 6.99815C0.4745 6.87759 0.333667 6.75926 0.333333 6.66593ZM0.833333 8.70296V7.93611C0.9665 8.02926 1.13517 8.11426 1.33333 8.19093V9.07759C1.00917 8.94259 0.833667 8.80722 0.833333 8.70296ZM8.66667 9.07759V8.19111C8.86483 8.11444 9.0335 8.02944 9.16667 7.9363V8.70259C9.1665 8.80685 8.99083 8.94241 8.66667 9.07759ZM9.1645 7.42167C9.14633 7.54704 8.89033 7.71333 8.43517 7.86963C7.8455 8.07204 6.92283 8.25741 5.7535 8.31481C5.69367 8.31759 5.634 8.32037 5.573 8.32259C5.52317 8.32444 5.47317 8.32611 5.42233 8.32759C5.28433 8.33093 5.14433 8.33333 5 8.33333C4.85567 8.33333 4.7155 8.33092 4.57733 8.32741C4.52717 8.32611 4.47767 8.32426 4.42817 8.32241C4.36667 8.32019 4.30667 8.31741 4.2465 8.31463C3.07717 8.25722 2.1545 8.07185 1.56483 7.86944C1.124 7.71815 0.869333 7.55741 0.837333 7.43333C0.887 7.45259 0.9385 7.4713 0.991333 7.48963C0.996667 7.49148 1.002 7.49333 1.00733 7.495C1.05233 7.51037 1.09833 7.52519 1.1455 7.53963C1.16333 7.54519 1.18133 7.55074 1.1995 7.55611C1.22617 7.56407 1.2535 7.57167 1.28083 7.57944C1.88783 7.75222 2.66267 7.87463 3.49917 7.92963C3.4995 7.92963 3.49967 7.92981 3.5 7.92981L3.5005 7.92963C3.75883 7.94667 4.02267 7.95722 4.28933 7.96074C4.36033 7.96222 4.43083 7.96296 4.5 7.96296C4.59183 7.96296 4.68583 7.96167 4.781 7.95982C5.02417 7.95537 5.26417 7.94537 5.49883 7.92981C5.49933 7.92981 5.49967 7.93019 5.50017 7.93019C5.501 7.93019 5.5015 7.92963 5.50233 7.92963C5.78817 7.91056 6.06483 7.88333 6.33067 7.84944C6.33167 7.84944 6.3325 7.85 6.3335 7.85C6.33717 7.85 6.34017 7.84796 6.34383 7.84759C6.63983 7.80963 6.9205 7.76296 7.181 7.7087C7.23467 7.69778 7.2875 7.68648 7.33983 7.67481C7.3515 7.67222 7.36317 7.66963 7.37483 7.66685C7.867 7.55463 8.293 7.40926 8.58533 7.22907C8.60133 7.21944 8.61633 7.20944 8.6315 7.19963C8.65 7.18741 8.66767 7.175 8.68483 7.16241C8.70083 7.15093 8.71933 7.13981 8.734 7.12815C9.063 7.25852 9.15367 7.37519 9.1645 7.42167ZM9.16667 5.00352V4.11704C9.36483 4.04037 9.5335 3.95537 9.66667 3.86222V4.62852C9.6665 4.73278 9.49083 4.86833 9.16667 5.00352Z" fill="white"/>
</svg>
