<svg width="37" height="48" viewBox="0 0 37 48" fill="none" xmlns="http://www.w3.org/2000/svg">
<ellipse cx="18.5" cy="18" rx="10.5" ry="10" fill="#1C274C"/>
<path d="M25.6055 14.1875L25.6453 14.1625C25.5656 14.025 25.4461 13.9 25.3266 13.8375L18.9117 10.3625C18.8055 10.3 18.6594 10.275 18.5 10.275C18.3406 10.275 18.1945 10.3125 18.0883 10.3625L11.7133 13.85C11.4875 13.975 11.3281 14.2875 11.3281 14.525V21.4875C11.3281 21.625 11.3547 21.775 11.4477 21.9125L11.4211 21.925C11.4875 22.025 11.5805 22.1125 11.6734 22.1625L18.075 25.65C18.1813 25.7125 18.3273 25.7375 18.4867 25.7375C18.6461 25.7375 18.7922 25.7 18.8984 25.65L25.2734 22.1625C25.4992 22.0375 25.6586 21.725 25.6586 21.4875V14.5125C25.6719 14.4125 25.6586 14.3 25.6055 14.1875ZM18.5 22.9375C15.6047 22.9375 13.2539 20.725 13.2539 18C13.2539 15.275 15.6047 13.0625 18.5 13.0625C20.4523 13.0625 22.1523 14.075 23.0555 15.5625L21.3289 16.5C20.7711 15.5625 19.7086 14.9375 18.5 14.9375C16.707 14.9375 15.2461 16.3125 15.2461 18C15.2461 19.6875 16.707 21.0625 18.5 21.0625C19.7086 21.0625 20.7711 20.4375 21.3289 19.5125L23.0422 20.4625C22.1391 21.9375 20.4391 22.9375 18.5 22.9375ZM25.2734 17.75H24.8484L24.7289 18.25H25.2734V18.875H24.6094L24.45 19.625H23.7992L23.9586 18.875H23.4539L23.2945 19.625H22.657L22.8164 18.875H22.4844V18.25H22.9492L23.0688 17.75H22.4844V17.125H23.1883L23.3477 16.375H23.9984L23.8391 17.125H24.3438L24.5031 16.375H25.1406L24.9813 17.125H25.2734V17.75ZM23.5867 18.25H24.0914L24.2109 17.75H23.7062L23.5867 18.25Z" fill="white"/>
<path d="M18.4999 0C8.28362 0 0 8.05978 0 18C0 27.9403 15.4168 48 18.5 48C21.5834 48 37 27.9403 37 18C37 8.05978 28.7164 0 18.4999 0ZM18.4999 29.9999C11.698 29.9999 6.16679 24.6151 6.16679 18C6.16679 11.385 11.698 5.99995 18.4999 5.99995C25.3021 5.99995 30.8331 11.385 30.8331 18C30.8331 24.6151 25.3022 29.9999 18.4999 29.9999Z" fill="#1C274C"/>
</svg>
