<svg width="30" height="20" viewBox="0 0 30 20" fill="none" xmlns="http://www.w3.org/2000/svg">
<path d="M24.138 8.15167C23.7574 8.15167 23.3809 8.18853 23.0116 8.26166C22.843 3.67716 19.1001 0 14.5233 0C10.3145 0 6.75332 3.14721 6.12856 7.28449C2.7352 7.36829 0 10.1843 0 13.6335C0 17.1354 2.81898 19.9844 6.28403 19.9844H11.5414C11.939 19.9844 12.2612 19.6588 12.2612 19.257C12.2612 18.8551 11.939 18.5295 11.5414 18.5295H6.28403C3.61274 18.5295 1.43953 16.3332 1.43953 13.6335C1.43953 10.9338 3.61284 8.73749 6.28403 8.73749C6.41522 8.73749 6.55399 8.74399 6.70812 8.75747L7.43748 8.82129L7.48824 8.0832C7.74362 4.36637 10.8338 1.45484 14.5233 1.45484C18.4132 1.45484 21.578 4.65326 21.578 8.58454C21.578 8.76523 21.5694 8.95843 21.5519 9.17501L21.4575 10.3358L22.531 9.91222C23.0451 9.70942 23.5857 9.60661 24.1382 9.60661C26.5767 9.60661 28.5606 11.6116 28.5606 14.076C28.5606 16.5403 26.5767 18.5453 24.1382 18.5453C24.0741 18.5453 22.1605 18.5414 20.2547 18.5375C18.3627 18.5336 16.4786 18.5297 16.416 18.5297C15.968 18.5297 15.7339 18.3117 15.7199 17.8818V10.0296L16.5009 10.9672C16.7569 11.2746 17.211 11.314 17.5151 11.0551C17.8192 10.7965 17.8581 10.3376 17.6021 10.0303L15.8711 7.95207C15.6531 7.69029 15.3397 7.54015 15.0114 7.54015C14.6831 7.54015 14.3698 7.69029 14.1518 7.95207L12.4208 10.0303C12.1648 10.3376 12.2038 10.7965 12.5079 11.0551C12.6429 11.1701 12.8074 11.2261 12.971 11.2261C13.1761 11.2261 13.3797 11.1381 13.522 10.9672L14.2802 10.0568V17.8888C14.2802 18.7313 14.849 19.9845 16.4159 19.9845C16.4785 19.9845 18.3612 19.9884 20.2516 19.9921C22.1589 19.9961 24.0739 20 24.1381 20C27.3705 20 30 17.3425 30 14.0759C30 10.8092 27.3704 8.15167 24.138 8.15167Z" fill="#1C274C"/>
</svg>
