<svg width="12" height="12" viewBox="0 0 12 12" fill="none" xmlns="http://www.w3.org/2000/svg">
<g clip-path="url(#clip0_58_70)">
<path d="M0.75 3.25C0.75 1.73122 1.98122 0.5 3.5 0.5C5.0188 0.5 6.25 1.73122 6.25 3.25C6.25 4.76878 5.0188 6 3.5 6C1.98122 6 0.75 4.76878 0.75 3.25Z" fill="#1C274C"/>
<path d="M7.24985 3.25C7.24985 4.00017 7.02955 4.69889 6.65015 5.285C7.1386 5.72925 7.7876 6 8.49985 6C10.0186 6 11.2498 4.76878 11.2498 3.25C11.2498 1.73122 10.0186 0.5 8.49985 0.5C7.7876 0.5 7.1386 0.770765 6.65015 1.21498C7.02955 1.80111 7.24985 2.49983 7.24985 3.25Z" fill="#1C274C"/>
<path d="M0 9C0 7.89545 0.89543 7 2 7H5C6.10455 7 7 7.89545 7 9V11C7 11.2761 6.77615 11.5 6.5 11.5H0.5C0.223858 11.5 0 11.2761 0 11V9Z" fill="#1C274C"/>
<path d="M7.99998 9V11.5H11.5C11.7761 11.5 12 11.2761 12 11V9C12 7.89545 11.1045 7 9.99998 7H7.23608C7.71108 7.53075 7.99998 8.23165 7.99998 9Z" fill="#1C274C"/>
</g>
<defs>
<clipPath id="clip0_58_70">
<rect width="12" height="12" fill="white"/>
</clipPath>
</defs>
</svg>
